<svg width="1920" height="1080" viewBox="0 0 1920 1080" xmlns="http://www.w3.org/2000/svg"><path d="M1920,1080C1640.8333333333333,1193,280.1666666666667,1145.6666666666667,0,1080C-280.1666666666667,1014.3333333333334,160.33333333333331,758.1666666666666,239,686C317.6666666666667,613.8333333333334,393.8333333333333,654,472,647C550.1666666666666,640,627,618.1666666666666,708,644C789,669.8333333333334,877.3333333333334,806.5,958,802C1038.6666666666667,797.5,1113.3333333333333,603.6666666666666,1192,617C1270.6666666666667,630.3333333333334,1349.5,917.8333333333334,1430,882C1510.5,846.1666666666666,1593.3333333333333,369,1675,402C1756.6666666666667,435,2199.1666666666665,967,1920,1080C1640.8333333333333,1193,280.1666666666667,1145.6666666666667,0,1080" fill="#15bdfd"/></svg>