<svg width="1657" height="949" viewBox="0 0 1657 949" fill="none" xmlns="http://www.w3.org/2000/svg">
<g filter="url(#filter0_d_2_329)">
<path fill-rule="evenodd" clip-rule="evenodd" d="M1715.98 2375.9C1563.44 2373.75 1433.21 2428.55 1279.94 2422.61C1079.37 2414.83 854.345 2528.93 680.724 2335.78C507.521 2143.09 621.045 1820.93 514.36 1570.91C382.766 1262.52 2.62957 1051.97 0.355079 741.324C-1.79571 447.571 299.424 389.361 505.101 306.33C669.245 240.066 877.146 359.072 1050.63 317.332C1274.2 263.541 1413.42 -105.178 1656.12 29.3992C1889.34 158.725 1906.61 583.172 2040.68 866.32C2157.23 1112.47 2326.9 1324.54 2392.64 1584.89C2467.35 1880.7 2585.81 2265.95 2437.84 2438.93C2279.67 2623.83 1958.4 2379.32 1715.98 2375.9Z" fill="url(#paint0_linear_2_329)"/>
</g>
<defs>
<filter id="filter0_d_2_329" x="0.343628" y="0.0427246" width="2516.25" height="2515.95" filterUnits="userSpaceOnUse" color-interpolation-filters="sRGB">
<feFlood flood-opacity="0" result="BackgroundImageFix"/>
<feColorMatrix in="SourceAlpha" type="matrix" values="0 0 0 0 0 0 0 0 0 0 0 0 0 0 0 0 0 0 127 0" result="hardAlpha"/>
<feOffset dx="4" dy="4"/>
<feGaussianBlur stdDeviation="2"/>
<feComposite in2="hardAlpha" operator="out"/>
<feColorMatrix type="matrix" values="0 0 0 0 0 0 0 0 0 0 0 0 0 0 0 0 0 0 0.3 0"/>
<feBlend mode="normal" in2="BackgroundImageFix" result="effect1_dropShadow_2_329"/>
<feBlend mode="normal" in="SourceGraphic" in2="effect1_dropShadow_2_329" result="shape"/>
</filter>
<linearGradient id="paint0_linear_2_329" x1="2190.91" y1="1058.14" x2="439.697" y2="1832.1" gradientUnits="userSpaceOnUse">
<stop stop-color="#2193B0"/>
<stop offset="1" stop-color="#2193B0"/>
</linearGradient>
</defs>
</svg>
